<svg width="42" height="49" viewBox="0 0 42 49" fill="none" xmlns="http://www.w3.org/2000/svg">
<path d="M21.6956 0.551044L21.5471 0.573895L21.57 3.49875C21.5814 5.10971 21.61 7.24622 21.6271 8.25735L21.6614 10.0911L23.9806 10.1254C25.2545 10.1482 26.3113 10.1482 26.3284 10.1311C26.3455 10.114 26.4026 9.25706 26.4483 8.22308C26.494 7.18909 26.5512 6.32649 26.574 6.30935C26.6311 6.24652 27.5508 6.38362 28.1906 6.54357C29.9158 6.97773 32.4978 7.98315 34.4457 8.97143C35.5482 9.53127 36.2165 9.954 36.2165 10.0911C36.2222 10.3939 35.8566 14.6555 35.8224 14.684C35.8052 14.7012 35.0284 15.0611 34.1029 15.4781C30.9554 16.8948 27.6194 18.4029 27.0653 18.66L26.5112 18.9171L24.8432 21.185C23.9178 22.4303 22.8324 23.8985 22.4268 24.4469C21.2786 26.0064 21.0616 26.2863 20.8902 26.412C20.736 26.5263 20.736 26.5263 20.656 26.4177C20.6103 26.3549 19.2907 24.6068 17.7198 22.5389L14.8636 18.7743L10.3337 16.7577C7.83739 15.6495 5.7638 14.724 5.72381 14.6955C5.66669 14.6612 5.60385 14.0671 5.48389 12.3362C5.39249 11.0622 5.34108 10.0111 5.35822 9.99399C6.28934 9.27991 8.74566 8.0974 11.0249 7.26336C12.4987 6.72638 13.6926 6.40647 14.6123 6.30364L14.9665 6.26365V6.41789C14.9665 6.65782 15.1435 10.1311 15.155 10.1368C15.1607 10.1368 16.2346 10.1254 17.537 10.1082L19.9077 10.0797L19.9248 5.32107L19.9362 0.568184H19.0108C17.3828 0.568184 15.1035 0.990913 12.0817 1.85352C8.86562 2.77325 7.20332 3.44162 2.45633 5.74952C1.74799 6.09227 0.908269 6.48645 0.588376 6.62355L0 6.86919V7.38904C0 8.09169 0.26277 13.8043 0.371305 15.4781C0.799734 21.9962 1.65659 26.9033 3.11325 31.1878C4.48994 35.2209 6.3179 38.2543 9.08269 41.0934C11.0706 43.1328 14.041 45.3436 17.28 47.1945C18.531 47.9086 19.6392 48.4398 19.8791 48.4398C19.9134 48.4398 19.9362 47.423 19.9362 45.6407V42.8472L19.5478 42.573C19.3307 42.4188 18.6224 41.9617 17.9712 41.5562C16.1146 40.3908 15.3435 39.7795 13.744 38.2143C11.6476 36.1577 10.1509 34.244 9.24835 32.4731C8.88847 31.7533 8.59714 31.0278 8.65427 30.9707C8.6714 30.9535 9.67678 31.382 10.8935 31.919C12.116 32.456 13.2813 32.9644 13.4869 33.0444L13.8582 33.1986L15.572 31.9761C16.5088 31.302 17.32 30.7365 17.3657 30.7079C17.4913 30.6451 17.2857 30.8279 15.5206 32.3817C14.6523 33.1529 13.9382 33.8213 13.9382 33.867C13.9439 33.9812 14.6066 37.0146 14.6294 37.0375C14.6408 37.0489 15.2464 37.1117 15.9661 37.1803C16.6916 37.2488 17.3485 37.3117 17.4399 37.3174L17.5941 37.3402L18.4339 34.8038C18.8966 33.4157 19.2793 32.2789 19.285 32.2903C19.2964 32.296 18.9765 33.5756 18.5824 35.1238L17.8626 37.9401L19.3022 39.3796L20.736 40.8135L22.1755 39.3739L23.615 37.9344L23.4893 37.4031C23.4208 37.1117 23.1237 35.8721 22.821 34.6496C22.5239 33.4271 22.284 32.416 22.2954 32.4103C22.3069 32.3988 22.6439 33.4328 23.0438 34.7182C23.4436 35.9978 23.7978 37.1117 23.8321 37.1974C23.8778 37.3231 23.9292 37.3574 24.072 37.3574C24.3119 37.3574 27.0253 37.0261 27.0596 36.9975C27.0824 36.9689 27.1681 36.4662 27.448 34.6439C27.4994 34.2954 27.5337 33.9527 27.5223 33.8727C27.5109 33.7756 27.0481 33.33 25.9228 32.3303C24.4719 31.0507 23.992 30.6051 24.2205 30.7707C24.2662 30.7993 25.0145 31.342 25.8771 31.9704C26.7397 32.5988 27.4994 33.1472 27.568 33.1872C27.6708 33.25 27.9678 33.1358 30.2642 32.1303C31.6866 31.5077 32.8634 31.0164 32.8805 31.0278C32.8919 31.045 32.8291 31.262 32.732 31.5077C31.7837 33.8898 28.8361 37.5345 26.0199 39.8024C25.3287 40.3565 24.6432 40.8249 22.6096 42.1388C22.1583 42.4245 21.7356 42.7158 21.6671 42.7786C21.5414 42.8929 21.5414 42.9215 21.5357 44.6238C21.5357 45.5721 21.5528 46.8232 21.57 47.4001L21.61 48.4456L21.7528 48.4113C22.1812 48.3027 23.5922 47.5772 25.0488 46.7089C29.773 43.8869 33.1947 40.8135 35.4339 37.3802C37.9245 33.5528 39.6611 28.2343 40.5808 21.6191C40.9692 18.8314 41.1635 16.3293 41.3006 12.3647C41.3348 11.4221 41.3862 10.1254 41.4148 9.47985C41.4434 8.83433 41.4719 7.98315 41.4719 7.58327V6.86348L41.0321 6.68068C40.7864 6.57785 39.5468 5.97802 38.273 5.34392C36.9877 4.70411 35.4682 3.99575 34.8513 3.74439C30.6698 2.06488 26.3227 0.848099 23.5122 0.573895C22.9124 0.511055 22.0155 0.505344 21.6956 0.551044Z" fill="url(#paint0_linear_119_72)"/>
<defs>
<linearGradient id="paint0_linear_119_72" x1="20.736" y1="48.4456" x2="20.736" y2="0.521057" gradientUnits="userSpaceOnUse">
<stop stop-color="#740000"/>
<stop offset="1" stop-color="#FF1616"/>
</linearGradient>
</defs>
</svg>
